<svg width="12" height="12" viewBox="0 0 12 12" fill="none" xmlns="http://www.w3.org/2000/svg">
<path d="M9.40799 4.032C9.14399 4.152 8.87999 4.224 8.56799 4.272C8.85599 4.08 9.09599 3.816 9.21599 3.48C8.92799 3.648 8.61599 3.768 8.30399 3.84C8.03999 3.552 7.65599 3.384 7.24799 3.384C6.45599 3.384 5.78399 4.032 5.78399 4.848C5.78399 4.968 5.80799 5.064 5.83199 5.184C4.63199 5.136 3.55199 4.536 2.83199 3.672C2.71199 3.84 2.63999 4.08 2.63999 4.344C2.63999 4.848 2.90399 5.304 3.28799 5.544C3.04799 5.544 2.83199 5.472 2.63999 5.352V5.376C2.63999 6.072 3.14399 6.672 3.81599 6.792C3.69599 6.816 3.57599 6.84 3.43199 6.84C3.33599 6.84 3.23999 6.84 3.16799 6.816C3.35999 7.392 3.88799 7.824 4.53599 7.824C4.03199 8.208 3.40799 8.448 2.73599 8.448C2.61599 8.448 2.49599 8.448 2.39999 8.424C2.97599 8.88 3.74399 9.12 4.55999 9.12C7.22399 9.12 8.68799 6.912 8.68799 4.992V4.8C8.97599 4.584 9.21599 4.344 9.40799 4.032Z" fill="white"/>
</svg>
