<svg width="12" height="12" viewBox="0 0 12 12" fill="none" xmlns="http://www.w3.org/2000/svg">
<path fill-rule="evenodd" clip-rule="evenodd" d="M4.9675 7.314V4.504L7.669 5.914L4.9675 7.314V7.314ZM10.9 4.0175C10.9 4.0175 10.8025 3.328 10.5025 3.0245C10.1225 2.6265 9.696 2.6245 9.5005 2.601C8.1015 2.5 6.002 2.5 6.002 2.5H5.998C5.998 2.5 3.899 2.5 2.4995 2.601C2.304 2.6245 1.878 2.626 1.4975 3.0245C1.1975 3.328 1.1 4.0175 1.1 4.0175C1.1 4.0175 1 4.8265 1 5.636V6.3945C1 7.2035 1.1 8.013 1.1 8.013C1.1 8.013 1.1975 8.702 1.4975 9.0055C1.8775 9.404 2.3775 9.391 2.6 9.433C3.4 9.5095 6 9.533 6 9.533C6 9.533 8.1015 9.53 9.5005 9.429C9.696 9.4055 10.1225 9.404 10.5025 9.0055C10.8025 8.702 10.9 8.013 10.9 8.013C10.9 8.013 11 7.2035 11 6.3945V5.636C11 4.8265 10.9 4.0175 10.9 4.0175V4.0175Z" fill="white"/>
</svg>
