<svg width="14" height="18" viewBox="0 0 14 18" fill="none" xmlns="http://www.w3.org/2000/svg">
<path d="M2.5 14.3246C4.3636 13.1133 9.14661 11.4174 12.9803 14.3246M2.5 14.3246C6.3337 19.17 11.1167 16.3435 12.9803 14.3246M2.5 14.3246C2.10066 12.3058 2.67725 7.94497 7.78885 6.65288M12.9803 14.3246C13.2998 9.80234 9.65245 7.32584 7.78885 6.65288M7.78885 6.65288C9.65244 6.78747 12.9004 5.84533 10.9836 1C9.91867 1.53837 7.70897 3.01889 7.38949 4.63399C6.72392 3.69185 4.51422 2.29209 1 4.23022C1.79869 5.30696 4.27463 7.29892 7.78885 6.65288Z" stroke="#FCE132"/>
</svg>
